<?xml version="1.0" encoding="UTF-8"?>
<svg xmlns='http://www.w3.org/2000/svg' xmlns:xlink='http://www.w3.org/1999/xlink' width="80px" height="80px" viewBox="0 0 80 80">
   <g fill="none" fill-rule="evenodd">
      <g transform="translate(0 6)">
         <path fill="#C9EBEC" d="M45.6158,33.54 L42.7078,27.19 L45.6158,25.73 L45.6158,33.54 Z M52.8229,28.12 L45.6159,25.73 L64.8819,16.061 L52.8229,28.12 Z M45.6158,35.1206 L69.1648,42.9306 L52.1128,42.9306 L48.7078,36.1466 L43.1858,41.6696 L43.1778,41.6766 L45.6158,35.1206 Z M35.7473,45.6812 L42.0683,42.7872 L53.1973,64.9612 L41.1243,52.8892 L43.5143,45.6812 L35.7473,45.6812 Z M27.5676,43.2435 L34.1236,45.6815 L26.3136,69.2305 L26.3136,52.1785 L33.0976,48.7735 L27.5746,43.2505 L27.5676,43.2435 Z M16.3421,41.2028 L23.5491,43.5928 L4.2831,53.2618 L16.3421,41.2028 Z M23.5492,35.7828 L26.4572,42.1328 L23.5492,43.5928 L23.5492,35.7828 Z M25.9869,27.6462 L23.5489,34.2022 L-0.0001,26.3922 L17.0519,26.3922 L20.4569,33.1762 L25.9799,27.6532 L25.9869,27.6462 Z M33.4177,23.6416 L27.0977,26.5356 L15.9677,4.3616 L28.0407,16.4336 L25.6507,23.6416 L33.4177,23.6416 Z M41.5974,26.0793 L35.0414,23.6413 L42.8514,0.0923 L42.8514,17.1443 L36.0674,20.5493 L41.5904,26.0723 L41.5974,26.0793 Z" />
         <path fill="#00868C" d="M45.6158,25.7301 L45.6168,25.7301 L52.8228,28.1201 L69.1648,33.5401 L45.6158,33.5401 L45.6158,25.7301 Z M43.1855,41.6694 L48.7085,36.1464 L52.1135,42.9314 L59.8375,58.3214 L43.1855,41.6694 Z M35.7473,45.6812 L43.5143,45.6812 L41.1243,52.8892 L35.7043,69.2302 L35.7043,45.6812 L35.7473,45.6812 Z M27.5749,43.2508 L33.0979,48.7738 L26.3129,52.1788 L10.9229,59.9028 L27.5749,43.2508 Z M23.5492,43.5931 L23.5482,43.5931 L16.3422,41.2031 L0.0002,35.7831 L23.5492,35.7831 L23.5492,43.5931 Z M25.9796,27.6534 L20.4566,33.1764 L17.0516,26.3914 L9.3276,11.0014 L25.9796,27.6534 Z M33.4177,23.6416 L25.6507,23.6416 L28.0407,16.4336 L33.4607,0.0926 L33.4607,23.6416 L33.4177,23.6416 Z M41.5901,26.072 L36.0671,20.549 L42.8521,17.144 L58.2421,9.42 L41.5901,26.072 Z" />
         <path fill="#00B3BA" d="M45.6158,33.54 L69.1648,33.54 L69.1648,42.931 L45.6158,35.121 L45.6158,33.54 Z M43.1855,41.6694 L59.8375,58.3214 L53.1965,64.9614 L42.0675,42.7874 L43.1785,41.6764 L43.1855,41.6694 Z M35.7042,45.6812 L35.7042,69.2302 L26.3132,69.2302 L34.1232,45.6812 L35.7042,45.6812 Z M27.5749,43.2508 L10.9229,59.9028 L4.2829,53.2618 L23.5489,43.5928 L26.4569,42.1328 L27.5679,43.2438 L27.5749,43.2508 Z M23.5492,35.7828 L0.0002,35.7828 L0.0002,26.3918 L23.5492,34.2018 L23.5492,35.7828 Z M25.9796,27.6534 L9.3276,11.0014 L15.9686,4.3614 L27.0976,26.5354 L25.9866,27.6464 L25.9796,27.6534 Z M33.4608,23.6416 L33.4608,0.0926 L42.8518,0.0926 L35.0418,23.6416 L33.4608,23.6416 Z M41.5901,26.072 L58.2421,9.42 L64.8821,16.061 L45.6161,25.73 L42.7081,27.19 L41.5971,26.079 L41.5901,26.072 Z" />
      </g>
   </g>
</svg>


